<?xml version="1.0" encoding="UTF-8"?>
<svg version="1.1" xmlns="http://www.w3.org/2000/svg" width="512" height="512">
<path d="M0 0 C2.1640625 1.8515625 2.1640625 1.8515625 3.1640625 3.8515625 C3.42647022 7.39406667 3.574937 9.98416077 2.0390625 13.2265625 C-0.60311032 15.51644561 -2.35447357 15.7832985 -5.8359375 15.8515625 C-9.83977409 14.39562192 -12.98529089 12.02586238 -16.3984375 9.5390625 C-32.82727675 -2.11137373 -52.87246412 -6.18598636 -72.72265625 -3.65234375 C-80.94032374 -2.1574546 -88.32071864 0.22889485 -95.8359375 3.8515625 C-96.74859375 4.27050781 -97.66125 4.68945312 -98.6015625 5.12109375 C-106.59714807 9.08461974 -112.5746174 14.61726968 -118.8359375 20.8515625 C-119.49464844 21.47546875 -120.15335938 22.099375 -120.83203125 22.7421875 C-134.27561853 36.52729779 -140.1484375 57.5026615 -140.1484375 76.24023438 C-139.73196464 97.19639142 -130.76164232 116.43008877 -116.4609375 131.6015625 C-100.48848334 146.67668778 -79.58790492 154.04693945 -57.8359375 153.8515625 C-35.87956515 152.33006548 -16.03758612 143.1721396 -1.15234375 126.921875 C12.53893764 110.67087452 19.11182871 90.11813968 17.94921875 68.9375 C16.98384557 58.32485669 14.63169927 47.00595023 8.8515625 37.9140625 C6.56169345 33.75837423 6.54791045 31.54972188 7.1640625 26.8515625 C8.6640625 24.3515625 8.6640625 24.3515625 11.1640625 22.8515625 C13.97089368 22.24763366 16.40988988 21.98550431 19.1640625 22.8515625 C31.65233832 36.04805812 35.6162076 59.2779228 35.1640625 76.8515625 C34.2695627 98.9384549 27.01375022 120.22573566 12.1640625 136.8515625 C11.52726562 137.61855469 10.89046875 138.38554687 10.234375 139.17578125 C5.43547333 144.85159065 0.0664264 149.36129718 -5.8359375 153.8515625 C-4.82394287 153.86558105 -4.82394287 153.86558105 -3.79150391 153.87988281 C-0.680624 153.93417019 2.42884479 154.01769965 5.5390625 154.1015625 C6.59996094 154.11574219 7.66085937 154.12992188 8.75390625 154.14453125 C19.87651284 154.4857155 27.80434323 157.50686934 35.89453125 165.21484375 C43.98867258 174.61853634 45.33699163 184.31720555 45.2265625 196.2265625 C45.22205078 197.15339844 45.21753906 198.08023438 45.21289062 199.03515625 C45.20117824 201.30735959 45.18477622 203.57942638 45.1640625 205.8515625 C45.89069092 205.45066406 46.61731934 205.04976562 47.3659668 204.63671875 C48.39633057 204.06824219 49.42669434 203.49976563 50.48828125 202.9140625 C51.0529007 202.60253738 51.61752014 202.29101227 52.19924927 201.970047 C55.40120736 200.20340361 58.603247 198.43690826 61.80541992 196.6706543 C67.82519892 193.35008808 73.84469634 190.02902789 79.86102295 186.70220947 C82.89919528 185.0222102 85.937814 183.34301934 88.9765625 181.6640625 C89.87242065 181.16897186 89.87242065 181.16897186 90.78637695 180.66387939 C100.23433039 175.44450796 109.71175794 170.28120534 119.2277832 165.18676758 C124.58625901 162.30453169 129.79832952 159.28493446 134.92944336 156.01245117 C138.61831578 154.0960753 141.07725473 154.21740267 145.1640625 154.8515625 C147.35887909 155.86045933 147.35887909 155.86045933 149.1640625 157.8515625 C149.56434502 160.78150456 149.70401524 163.33896211 149.67199707 166.27171326 C149.67823703 167.14125092 149.684477 168.01078858 149.69090605 168.90667588 C149.70691107 171.83185538 149.6942025 174.75621023 149.68164062 177.68139648 C149.68705845 179.77384937 149.69417918 181.86629843 149.70288086 183.95874023 C149.72115863 189.65089303 149.71402795 195.34275671 149.70136452 201.03491473 C149.69125858 206.9841458 149.70062361 212.93335161 149.70690918 218.88258362 C149.71419317 228.87562518 149.70457873 238.86854862 149.68554688 248.86157227 C149.66378272 260.4229134 149.67082329 271.98397234 149.6928525 283.54530662 C149.71099214 293.46129572 149.71357165 303.37719975 149.70309782 313.29320008 C149.69685425 319.22004928 149.6960509 325.14676576 149.70924377 331.07360649 C149.7207805 336.64604046 149.71281617 342.21810995 149.68966675 347.79050446 C149.68436778 349.83838101 149.68591364 351.88628812 149.69471741 353.9341526 C149.70560965 356.72466157 149.69198587 359.51399456 149.67199707 362.3044281 C149.68091996 363.11950236 149.68984284 363.93457662 149.69903612 364.77435011 C149.6492588 368.34422139 149.47178514 370.43535789 147.31981659 373.34596348 C144.93837828 375.00918249 143.23918436 375.55590436 140.32421875 375.37255859 C135.21311549 374.13983997 130.70376273 371.22986357 126.1640625 368.6640625 C125.01486328 368.02984375 123.86566406 367.395625 122.68164062 366.7421875 C119.16407946 364.79908613 115.66312443 362.82779184 112.1640625 360.8515625 C111.16117187 360.28614746 110.15828125 359.72073242 109.125 359.13818359 C105.36736558 357.01683514 101.61206356 354.89153069 97.86254883 352.75585938 C89.58636726 348.05226872 81.21895189 343.52759241 72.8203125 339.046875 C63.54137773 334.08930701 54.35096092 328.9772364 45.1640625 323.8515625 C45.17294495 324.59943527 45.18182739 325.34730804 45.190979 326.11784363 C45.27166528 333.22163714 45.33229814 340.32526765 45.37131119 347.42939281 C45.39204371 351.08032728 45.42009241 354.73087806 45.46582031 358.3815918 C45.5097986 361.91538995 45.53330687 365.44882288 45.54357147 368.98287392 C45.55438431 370.96398101 45.58552383 372.94494445 45.61724854 374.92582703 C45.62002595 386.32788852 43.77828798 397.06152976 36.140625 405.91796875 C27.31489302 414.55183699 17.0708568 417.32587863 4.95703125 417.28515625 C4.02860916 417.2903981 3.10018707 417.29563995 2.14363098 417.30104065 C0.20001214 417.30741297 -1.74364551 417.3061867 -3.68725586 417.29760742 C-6.6587307 417.2890328 -9.62832058 417.31802857 -12.59960938 417.34960938 C-14.49739526 417.35122012 -16.39518454 417.35064629 -18.29296875 417.34765625 C-19.17636429 417.35889023 -20.05975983 417.37012421 -20.96992493 417.38169861 C-25.12470675 417.33463989 -27.29188857 417.19075672 -30.89306641 414.94555664 C-32.98951242 412.68604201 -33.49899243 411.88004039 -33.3984375 408.8515625 C-33.40037109 407.8615625 -33.40037109 407.8615625 -33.40234375 406.8515625 C-32.53948461 403.80477713 -31.38448538 402.75967091 -28.8359375 400.8515625 C-25.75092185 400.27255778 -22.70493942 400.34207023 -19.57421875 400.3828125 C-18.66898972 400.37576294 -17.76376068 400.36871338 -16.83110046 400.3614502 C-12.96708424 400.33202163 -9.10357376 400.34851632 -5.23950195 400.36083984 C-2.41327406 400.36323719 0.41215319 400.34220556 3.23828125 400.3203125 C4.52782967 400.33729187 4.52782967 400.33729187 5.84342957 400.35461426 C11.98606565 400.30406528 16.83404275 398.95655583 22.1640625 395.8515625 C24.14645777 393.99031327 24.14645777 393.99031327 25.1640625 391.8515625 C25.5353125 391.1915625 25.9065625 390.5315625 26.2890625 389.8515625 C28.28769539 385.28325875 28.31023795 380.91879892 28.30450439 375.9901886 C28.30747552 375.19274473 28.31044664 374.39530086 28.3135078 373.57369202 C28.32218733 370.89848264 28.32370242 368.22331805 28.32519531 365.5480957 C28.32982406 363.63109746 28.3348488 361.71410013 28.34024048 359.79710388 C28.35336212 354.58615918 28.35980913 349.37522737 28.36425114 344.16426873 C28.3671826 340.90778636 28.37128758 337.6513075 28.37575531 334.39482689 C28.38943041 324.20358621 28.39909667 314.01235357 28.4029572 303.82110435 C28.40743634 292.06168838 28.42497751 280.30238875 28.4539578 268.54300815 C28.4755863 259.45071529 28.48566213 250.35845513 28.48699832 241.26613683 C28.48804562 235.83713668 28.49393751 230.40824588 28.51181793 224.97927284 C28.52831846 219.86980419 28.53044444 214.76052686 28.52167892 209.65104103 C28.52090958 207.77940864 28.52523769 205.90776588 28.53513718 204.03615952 C29.09743333 189.56521374 29.09743333 189.56521374 23.4453125 176.6953125 C22.56359375 176.03015625 22.56359375 176.03015625 21.6640625 175.3515625 C21.07625 174.8875 20.4884375 174.4234375 19.8828125 173.9453125 C16.78965984 171.97694262 14.14356952 171.7255604 10.57937145 171.72013474 C9.6330983 171.71629359 8.68682515 171.71245245 7.71187705 171.7084949 C6.14945343 171.70979463 6.14945343 171.70979463 4.5554657 171.71112061 C3.45049313 171.70814948 2.34552056 171.70517836 1.20706397 171.7021172 C-2.51471557 171.69340968 -6.23646302 171.69192022 -9.95825195 171.69042969 C-12.6188777 171.68580299 -15.27950049 171.6807993 -17.94012451 171.67538452 C-25.18185263 171.66179829 -32.42357522 171.65577606 -39.66531396 171.65137386 C-44.18629782 171.64861199 -48.70727954 171.64437475 -53.22826195 171.63986969 C-65.74333849 171.62767676 -78.25841332 171.61737742 -90.77349567 171.6139946 C-91.97515755 171.61366525 -91.97515755 171.61366525 -93.20109541 171.61332925 C-94.00412926 171.61311097 -94.80716311 171.61289269 -95.63453132 171.6126678 C-97.26180669 171.61222433 -98.88908206 171.61177777 -100.51635742 171.61132812 C-101.32354366 171.6111067 -102.13072989 171.61088527 -102.96237632 171.61065713 C-116.04317422 171.60670868 -129.12391643 171.58925337 -142.20469282 171.5659686 C-155.63162633 171.54226039 -169.0585319 171.52979299 -182.48548669 171.52862668 C-190.02540792 171.52770963 -197.56525659 171.52194986 -205.10515785 171.50380707 C-211.52529267 171.48841323 -217.94533249 171.48328135 -224.36548225 171.49154517 C-227.64118475 171.49545424 -230.91665571 171.49288048 -234.19234276 171.48048782 C-237.74385763 171.46783784 -241.29487878 171.4736077 -244.84638977 171.48406982 C-245.88131335 171.47601342 -246.91623693 171.46795702 -247.98252183 171.45965648 C-253.35240923 171.49674573 -257.22572307 171.7780237 -261.8359375 174.8515625 C-267.68197889 180.96333304 -269.13728842 185.68713897 -269.10336304 193.99177551 C-269.11015971 195.21478262 -269.11015971 195.21478262 -269.11709368 196.46249694 C-269.12974536 199.19225949 -269.12811682 201.92182272 -269.12646484 204.65161133 C-269.13244963 206.6097896 -269.13925506 208.5679655 -269.14682007 210.52613831 C-269.16449276 215.84440419 -269.169176 221.16260573 -269.17045164 226.48089814 C-269.17187313 229.80421954 -269.17614269 233.12752457 -269.18144608 236.4508419 C-269.19995085 248.04674697 -269.20811616 259.64260605 -269.20654297 271.23852539 C-269.20534159 282.04432623 -269.2264422 292.84992732 -269.2580303 303.65567762 C-269.28419059 312.93566636 -269.29491036 322.21558985 -269.29363215 331.49561518 C-269.29312243 337.03693613 -269.29881142 342.57807959 -269.31998825 348.11936378 C-269.33936624 353.3323138 -269.33949796 358.54491694 -269.32495499 363.75787926 C-269.32286523 365.66863385 -269.32757773 367.57941013 -269.3396759 369.49012756 C-269.355151 372.10395713 -269.3458057 374.71659401 -269.33041382 377.33039856 C-269.34070094 378.08187489 -269.35098807 378.83335122 -269.36158693 379.60759956 C-269.28138828 385.79431363 -267.41640423 391.186212 -263.0546875 395.69140625 C-262.4875 396.05363281 -261.9203125 396.41585938 -261.3359375 396.7890625 C-260.76875 397.16933594 -260.2015625 397.54960937 -259.6171875 397.94140625 C-255.17091949 400.2132932 -250.60395595 399.99636474 -245.71313477 399.98959351 C-244.88766175 399.99241479 -244.06218874 399.99523607 -243.21170139 399.99814284 C-240.44190603 400.00648502 -237.67215065 400.00782675 -234.90234375 400.00927734 C-232.91812019 400.01394571 -230.9338977 400.01908932 -228.94967651 400.02467346 C-224.67501933 400.03595283 -220.40036912 400.04438767 -216.1257019 400.05079269 C-209.36966346 400.06146711 -202.61367519 400.08170918 -195.85766602 400.10391235 C-176.64569386 400.16585961 -157.43372492 400.21989389 -138.22167969 400.25292969 C-127.61249344 400.27125272 -117.00339144 400.30015654 -106.39426708 400.3409344 C-100.77821424 400.36203779 -95.16226769 400.37746644 -89.5461731 400.37974167 C-84.26678117 400.3818831 -78.9876108 400.39770066 -73.70828629 400.42413139 C-71.76845648 400.43134428 -69.82859988 400.43341578 -67.88875961 400.43002892 C-65.24515536 400.42614981 -62.60226421 400.4405377 -59.95874023 400.45956421 C-59.18714852 400.45403451 -58.41555681 400.44850482 -57.62058353 400.44280756 C-54.46863536 400.48209824 -52.18890988 400.66224611 -49.38685608 402.16512489 C-46.89744854 404.87205648 -46.8979031 407.25755787 -46.8359375 410.8515625 C-48.0859375 413.7265625 -48.0859375 413.7265625 -49.8359375 415.8515625 C-53.54355072 417.08743357 -56.97484733 416.99632529 -60.83607483 416.99200439 C-61.66054357 416.99497552 -62.48501232 416.99794664 -63.33446497 417.0010078 C-66.10718279 417.00970439 -68.87985749 417.01120388 -71.65258789 417.01269531 C-73.63678073 417.01732294 -75.62097267 417.02234752 -77.60516357 417.02774048 C-83.00424517 417.04087492 -88.40331433 417.04731189 -93.80240941 417.05175114 C-97.17631844 417.05468118 -100.55022407 417.05878594 -103.92413139 417.06325531 C-114.48219158 417.0769352 -125.040244 417.08659851 -135.59831244 417.0904572 C-147.7816505 417.09493432 -159.96487617 417.1124641 -172.14818007 417.1414578 C-181.56658026 417.16309229 -190.98494889 417.17316249 -200.40337366 417.17449832 C-206.02747982 417.17554541 -211.6514804 417.18143238 -217.27556038 417.19931793 C-222.57051218 417.2158283 -227.86527939 417.21793966 -233.1602478 417.20917892 C-235.09918653 417.20841005 -237.0381353 417.21273152 -238.97704887 417.22263718 C-253.50818434 417.29249412 -265.41583648 416.60029775 -276.58984375 406.22265625 C-282.63287201 399.69497409 -285.96516822 391.5315171 -285.95619202 382.6630249 C-285.95825401 381.08974426 -285.95825401 381.08974426 -285.96035767 379.48468018 C-285.95496475 377.76701447 -285.95496475 377.76701447 -285.94946289 376.01464844 C-285.94960892 374.80462158 -285.94975494 373.59459473 -285.9499054 372.34790039 C-285.94932832 369.03416888 -285.94431477 365.72049976 -285.93733144 362.40677929 C-285.93107801 358.94210685 -285.93049252 355.47743356 -285.92930603 352.01275635 C-285.92619859 345.45384441 -285.9179931 338.89494915 -285.90795654 332.33604455 C-285.89677719 324.86813972 -285.89128036 317.40023409 -285.88626111 309.93232298 C-285.87581001 294.57205983 -285.85822191 279.21181332 -285.8359375 263.8515625 C-309.68854313 263.2318493 -309.68854313 263.2318493 -331.7109375 271.1640625 C-333.85404006 272.32705626 -335.99726644 273.48982187 -338.140625 274.65234375 C-339.5939624 275.47714233 -339.5939624 275.47714233 -341.07666016 276.31860352 C-351.08659651 281.87977768 -351.08659651 281.87977768 -356.7109375 281.7890625 C-359.87804862 280.83892916 -360.86416645 280.38171633 -362.8359375 277.8515625 C-363.21346092 275.89782715 -363.21346092 275.89782715 -363.21688843 273.63867188 C-363.2253479 272.78063965 -363.23380737 271.92260742 -363.24252319 271.03857422 C-363.23341415 269.63115967 -363.23341415 269.63115967 -363.22412109 268.1953125 C-363.22937805 267.2048291 -363.23463501 266.2143457 -363.24005127 265.19384766 C-363.25327772 261.91292651 -363.24450364 258.63248876 -363.234375 255.3515625 C-363.23639497 253.07617092 -363.23930576 250.80077998 -363.24307251 248.52539062 C-363.24749946 243.75384362 -363.24105276 238.98246496 -363.22705078 234.2109375 C-363.20995885 228.08714397 -363.21979803 221.96374487 -363.23776817 215.83996582 C-363.24859591 211.14059463 -363.24516428 206.44131734 -363.2373848 201.74194336 C-363.23538 199.48364211 -363.23785182 197.2253324 -363.24482346 194.96704102 C-363.25242118 191.81373432 -363.24085691 188.66107113 -363.22412109 185.5078125 C-363.23323013 184.10039795 -363.23323013 184.10039795 -363.24252319 182.66455078 C-363.23406372 181.80651855 -363.22560425 180.94848633 -363.21688843 180.06445312 C-363.21575735 179.31893188 -363.21462627 178.57341064 -363.21346092 177.80529785 C-362.72807067 175.29333689 -361.8202672 174.41998802 -359.8359375 172.8515625 C-354.06897855 170.97529578 -350.06015569 173.37134173 -344.8359375 175.8515625 C-342.82546132 176.90553027 -340.82184292 177.97265313 -338.82421875 179.05078125 C-320.85002362 188.58692546 -306.11325083 190.81842504 -285.8359375 189.8515625 C-285.79057861 189.1198584 -285.74521973 188.3881543 -285.69848633 187.63427734 C-285.01727241 178.42682824 -282.53639881 170.55202381 -275.8359375 163.8515625 C-269.02926527 158.58449471 -262.31558383 155.44515121 -253.8359375 153.8515625 C-254.30902344 153.43648437 -254.78210938 153.02140625 -255.26953125 152.59375 C-269.04356154 139.75946837 -276.70774812 122.62053134 -277.8359375 103.8515625 C-277.81442705 82.96491375 -271.19419217 65.33157337 -256.45703125 50.44921875 C-240.93266943 35.84805842 -223.52518938 31.30287301 -202.7265625 31.578125 C-184.54404374 32.16409641 -168.38581137 40.90201111 -155.8359375 53.8515625 C-155.2790625 52.335625 -155.2790625 52.335625 -154.7109375 50.7890625 C-154.08797638 49.14245635 -153.46257292 47.49677386 -152.8359375 45.8515625 C-152.39894531 44.69011719 -151.96195313 43.52867188 -151.51171875 42.33203125 C-141.53718684 16.26436194 -123.13201607 -2.714178 -97.80371094 -14.29541016 C-64.96301879 -28.53180946 -27.81404021 -21.07124258 0 0 Z M-248.8359375 65.8515625 C-258.32265457 78.35678045 -263.26404244 92.72797182 -261.2734375 108.5390625 C-258.56473502 122.60016136 -251.40632342 136.13776732 -239.51953125 144.4765625 C-226.46864786 152.64612957 -212.36836363 156.66723662 -196.95703125 153.66796875 C-183.94868511 150.26528497 -171.51558321 143.15924227 -163.8359375 131.8515625 C-155.74181593 117.71581645 -152.52041886 104.33694427 -155.5234375 88.14453125 C-159.71562937 73.4194573 -168.59675941 61.5587894 -181.8359375 53.8515625 C-205.10565479 42.6229084 -230.96285785 46.616408 -248.8359375 65.8515625 Z M-142.8359375 125.8515625 C-143.35800781 126.86734375 -143.88007813 127.883125 -144.41796875 128.9296875 C-148.98866215 137.56298571 -153.878832 144.73454484 -160.74609375 151.69140625 C-162.95182303 153.47041114 -162.95182303 153.47041114 -162.8359375 154.8515625 C-146.6659375 154.8515625 -130.4959375 154.8515625 -113.8359375 154.8515625 C-116.3109375 152.8715625 -116.3109375 152.8715625 -118.8359375 150.8515625 C-125.9381888 144.7313264 -132.22425436 138.55889583 -137.99609375 131.1640625 C-139.52093167 129.2474934 -141.06105865 127.53244465 -142.8359375 125.8515625 Z M125.64453125 179.7890625 C124.49194824 180.42851807 123.33936523 181.06797363 122.15185547 181.72680664 C120.8850675 182.4350163 119.61830385 183.14326947 118.3515625 183.8515625 C117.04077238 184.58043758 115.72973335 185.3088652 114.41845703 186.03686523 C111.6889857 187.55265136 108.9606052 189.07037541 106.23291016 190.58935547 C100.60730375 193.71988534 94.96700377 196.82366781 89.3274231 199.92892456 C83.93697504 202.89831166 78.55067639 205.87522767 73.1640625 208.8515625 C72.21170715 209.37768127 72.21170715 209.37768127 71.2401123 209.91442871 C67.4025318 212.03476199 63.56612073 214.15718764 59.73126221 216.28244019 C58.5271172 216.94946606 57.32265309 217.61591623 56.11785889 218.2817688 C54.46048563 219.19793936 52.80442582 220.11648477 51.1484375 221.03515625 C49.73643066 221.81717407 49.73643066 221.81717407 48.29589844 222.61499023 C46.25062306 223.67938037 46.25062306 223.67938037 45.1640625 224.8515625 C45.06903834 227.34648638 45.03848684 229.81362264 45.05053711 232.30883789 C45.05039108 233.08926956 45.05024506 233.86970123 45.0500946 234.67378235 C45.05079392 237.2656223 45.05858714 239.85739128 45.06640625 242.44921875 C45.06827037 244.2414089 45.0696943 246.03359956 45.07069397 247.82579041 C45.07451966 252.55227047 45.08435038 257.27872002 45.09539795 262.00518799 C45.10561097 266.824418 45.11019135 271.64365292 45.11523438 276.46289062 C45.12597261 285.92579469 45.14304964 295.38867606 45.1640625 304.8515625 C63.06830899 315.02506575 63.06830899 315.02506575 81.1640625 324.8515625 C90.49604139 329.83452156 99.74482301 334.94088136 108.90234375 340.23828125 C116.86093567 344.80152836 124.90452201 348.72179226 133.1640625 352.8515625 C133.1640625 294.7715625 133.1640625 236.6915625 133.1640625 176.8515625 C130.1562499 176.8515625 128.26243571 178.32986874 125.64453125 179.7890625 Z M-346.8359375 193.8515625 C-346.8359375 215.6315625 -346.8359375 237.4115625 -346.8359375 259.8515625 C-339.67252772 258.64691563 -339.67252772 258.64691563 -325.8359375 250.8515625 C-325.8359375 235.0115625 -325.8359375 219.1715625 -325.8359375 202.8515625 C-335.96938211 196.72145826 -335.96938211 196.72145826 -346.8359375 193.8515625 Z M-309.8359375 205.8515625 C-309.8359375 219.7115625 -309.8359375 233.5715625 -309.8359375 247.8515625 C-301.9159375 247.8515625 -293.9959375 247.8515625 -285.8359375 247.8515625 C-285.8359375 233.9915625 -285.8359375 220.1315625 -285.8359375 205.8515625 C-293.7559375 205.8515625 -301.6759375 205.8515625 -309.8359375 205.8515625 Z " fill="#000000" transform="translate(362.8359375,58.1484375)"/>
<path d="M0 0 C1.10572105 -0.00855011 1.10572105 -0.00855011 2.23377991 -0.01727295 C3.78954646 -0.02669766 5.34533274 -0.03324686 6.90112305 -0.03710938 C9.27362969 -0.04682778 11.64527408 -0.07787879 14.01757812 -0.109375 C15.53254696 -0.11590465 17.04752197 -0.12115527 18.5625 -0.125 C19.26785385 -0.1373468 19.9732077 -0.1496936 20.69993591 -0.16241455 C25.50224346 -0.14082056 28.89503291 0.75050166 32.34765625 4.203125 C32.81426584 9.89576199 32.81426584 9.89576199 32.34765625 12.203125 C28.34765625 16.203125 28.34765625 16.203125 -6.65234375 17.203125 C-6.32234375 44.923125 -5.99234375 72.643125 -5.65234375 101.203125 C41.53765625 101.203125 88.72765625 101.203125 137.34765625 101.203125 C137.36828125 87.52875 137.38890625 73.854375 137.41015625 59.765625 C137.41926025 55.44154541 137.42836426 51.11746582 137.43774414 46.66235352 C137.44108775 42.79973642 137.44108775 42.79973642 137.44309998 38.93711853 C137.44463958 37.21132652 137.44816485 35.48553562 137.45323181 33.75975037 C137.46050885 31.15174479 137.46156368 28.54380517 137.46118164 25.93579102 C137.46477975 25.16181504 137.46837786 24.38783907 137.472085 23.59040928 C137.78443906 20.10573996 137.78443906 20.10573996 136.34765625 17.203125 C133.72191534 17.093967 131.12151037 17.04889812 128.49487305 17.04541016 C127.67209869 17.04032944 126.84932434 17.03524872 126.00161743 17.03001404 C124.20860051 17.01928615 122.41556999 17.01067553 120.6225338 17.00389481 C117.7858662 16.99214189 114.94935335 16.97269808 112.11274719 16.95077515 C104.04535054 16.88904091 95.97796814 16.83510685 87.91040039 16.80175781 C82.98135323 16.78083009 78.05258516 16.74553898 73.12369728 16.70100021 C71.24305314 16.68682117 69.36235958 16.67811349 67.48166466 16.67494583 C64.85035327 16.67004554 62.21978404 16.64690983 59.58862305 16.61962891 C58.80976242 16.62263504 58.03090179 16.62564117 57.22843933 16.6287384 C54.03022444 16.57941281 51.72225631 16.40843637 48.89118958 14.85678101 C46.59174131 12.39327966 46.41421654 10.53113967 46.34765625 7.203125 C47.52657073 4.47300726 48.50655578 2.79181377 50.95281982 1.07966614 C54.42580342 -0.19149082 57.82712132 -0.08331083 61.47753906 -0.0715332 C62.70271996 -0.0791996 62.70271996 -0.0791996 63.95265198 -0.08702087 C66.65210304 -0.10091673 69.35129866 -0.09995958 72.05078125 -0.09765625 C73.93162124 -0.10154427 75.81246036 -0.10587916 77.69329834 -0.11064148 C81.63752079 -0.11810448 85.58165374 -0.11781263 89.52587891 -0.11254883 C94.56738998 -0.10676577 99.60853229 -0.12365664 104.64998245 -0.1468935 C108.53631718 -0.16166753 112.42256397 -0.16249735 116.30892181 -0.15938377 C118.16676308 -0.15989553 120.02460946 -0.16510575 121.8824234 -0.17519569 C124.48858641 -0.18760874 127.09404259 -0.18073865 129.70019531 -0.16918945 C130.4599617 -0.17683319 131.21972809 -0.18447693 132.0025177 -0.19235229 C138.53167691 -0.12878163 143.95445552 1.28856442 149.16015625 5.453125 C153.90406447 11.41689533 154.79353933 16.65827741 154.75170898 24.04077148 C154.75857224 24.89701111 154.76543549 25.75325073 154.77250671 26.63543701 C154.790716 29.44853589 154.78694565 32.26107393 154.78125 35.07421875 C154.78581459 37.04045288 154.79112099 39.00668542 154.7971344 40.97291565 C154.80605396 45.08755996 154.80365547 49.20201006 154.79370117 53.31665039 C154.78221262 58.5767808 154.80242729 63.83623977 154.83161831 69.09628201 C154.85000713 73.155057 154.8496825 77.21367188 154.84398079 81.2724781 C154.84382791 83.21126307 154.84984489 85.15005911 154.86227226 87.08880424 C154.87723138 89.80498671 154.86646946 92.51993873 154.84936523 95.23608398 C154.86386719 96.4247683 154.86386719 96.4247683 154.87866211 97.63746643 C154.79763135 103.81513889 153.22029019 109.239223 148.82959652 113.76941586 C144.44085799 117.5143456 142.02167333 118.32871946 136.35250854 118.35702515 C135.07395493 118.36562561 133.79540131 118.37422607 132.47810364 118.38308716 C131.0529484 118.3875226 129.62779274 118.39182094 128.20263672 118.39599609 C126.70794992 118.40389624 125.21326503 118.41216514 123.71858215 118.42077637 C118.80068792 118.44701383 113.88278512 118.46230899 108.96484375 118.4765625 C107.27175008 118.48192209 105.57865646 118.4872996 103.8855629 118.49269485 C96.84095688 118.51432904 89.79635317 118.53306431 82.75172234 118.54431725 C72.65867297 118.56054553 62.56600928 118.59368967 52.47310531 118.65071809 C45.37575874 118.68945098 38.27851515 118.70895408 31.18106568 118.71423781 C26.94298267 118.71788765 22.70531084 118.72986877 18.46734238 118.76234055 C14.47648917 118.79247922 10.48629462 118.79871272 6.49535179 118.78695679 C5.03448338 118.78673651 3.5735839 118.79500365 2.11282158 118.81261063 C-11.67191155 118.96964916 -11.67191155 118.96964916 -17.13207054 114.79146004 C-22.38440244 109.30398401 -23.2433004 103.40525368 -23.16992188 96.06835938 C-23.17693115 95.19246658 -23.18394043 94.31657379 -23.19116211 93.41413879 C-23.20865462 90.54138751 -23.1971506 87.66963493 -23.18359375 84.796875 C-23.18629118 82.78722954 -23.19017569 80.77758535 -23.19519043 78.76794434 C-23.20107364 74.5650586 -23.19256042 70.36251392 -23.17382812 66.15966797 C-23.15103945 60.78632201 -23.16416883 55.41377535 -23.18811798 50.04045868 C-23.20260774 45.89331089 -23.19795538 41.74635099 -23.18760681 37.59919739 C-23.18494831 35.61855473 -23.18817826 33.63789473 -23.19752502 31.65727234 C-23.20774305 28.88368884 -23.19211655 26.11137979 -23.16992188 23.33789062 C-23.1780188 22.52830399 -23.18611572 21.71871735 -23.19445801 20.88459778 C-23.10032887 14.49940685 -21.38940258 9.03021866 -16.87109375 4.36328125 C-16.0203125 3.81994141 -16.0203125 3.81994141 -15.15234375 3.265625 C-14.58515625 2.88535156 -14.01796875 2.50507813 -13.43359375 2.11328125 C-9.14005757 -0.08056509 -4.72946084 0.02841427 0 0 Z " fill="#000000" transform="translate(176.65234375,262.796875)"/>
<path d="M0 0 C8.41436686 6.33441101 14.48078836 14.89036052 16.2421875 25.28125 C17.59294444 37.21056653 15.14629375 47.742595 7.73828125 57.30859375 C0.17154696 65.40780194 -8.14531722 70.28945962 -19.26171875 71.30859375 C-31.84867199 71.44793272 -42.154587 68.18891953 -51.26171875 59.30859375 C-59.30364463 49.38787733 -62.30580597 39.00171118 -61.26171875 26.30859375 C-59.04064632 14.81521294 -53.99685241 6.31579883 -44.375 -0.41015625 C-30.32153615 -8.93055578 -13.81149682 -9.32760406 0 0 Z M-40.26171875 17.30859375 C-44.54755688 23.40187799 -45.97723197 28.89695684 -45.26171875 36.30859375 C-43.89254319 42.90324669 -40.42453666 47.12282525 -35.26171875 51.30859375 C-29.94668684 54.77491891 -24.22762505 55.94259918 -17.96484375 54.94140625 C-11.94073626 53.25881071 -7.19601877 50.1821636 -3.26171875 45.30859375 C-0.13368147 39.61969079 1.57300143 33.90271058 0.40625 27.43359375 C-1.76273157 20.53344187 -6.33606603 15.32957238 -12.26171875 11.30859375 C-22.43089237 6.54855504 -32.62126247 9.66813747 -40.26171875 17.30859375 Z " fill="#000000" transform="translate(324.26171875,100.69140625)"/>
<path d="M0 0 C3.58162689 1.90840908 6.22870536 4.21255485 8.875 7.3125 C9.596875 8.116875 10.31875 8.92125 11.0625 9.75 C16.03123996 16.77477028 15.59347606 25.05446034 14.875 33.3125 C13.99649304 36.40389478 12.75278344 38.72202648 10.875 41.3125 C9.823125 42.8903125 9.823125 42.8903125 8.75 44.5 C4.00368773 49.79618991 -2.69845908 52.4000803 -9.625 53.3125 C-17.9442062 53.6997127 -24.9334902 51.31009893 -31.37109375 46.04296875 C-37.07343987 40.41682325 -39.98779454 33.6796548 -40.19140625 25.71484375 C-39.82398065 17.79849215 -37.73719951 10.84617343 -31.96875 5.203125 C-22.82269637 -2.1746916 -11.19644845 -4.65576224 0 0 Z M-21.125 17.3125 C-23.47083197 21.24744395 -24.25474814 23.37182596 -23.625 27.9375 C-21.9335522 31.74325756 -20.41819815 33.76775597 -17.125 36.3125 C-13.2298111 37.66734831 -11.40520368 37.39798587 -7.4375 36.1875 C-3.80770539 34.13289928 -2.58678851 33.18194017 -1.125 29.3125 C-0.42272563 24.17266057 -0.42272563 24.17266057 -2.1796875 19.5 C-3.94995431 17.32121008 -5.59768739 15.5761563 -8.125 14.3125 C-15.18438077 13.82742351 -15.18438077 13.82742351 -21.125 17.3125 Z " fill="#000000" transform="translate(167.125,133.6875)"/>
<path d="M0 0 C1.23621094 -0.02384766 2.47242188 -0.04769531 3.74609375 -0.07226562 C4.93332031 -0.07033203 6.12054688 -0.06839844 7.34375 -0.06640625 C8.42849609 -0.06713135 9.51324219 -0.06785645 10.63085938 -0.06860352 C13.5 0.5625 13.5 0.5625 15.88867188 2.87524414 C17.5 5.5625 17.5 5.5625 17.4375 9.1875 C16.21128829 13.60186215 16.21128829 13.60186215 13.5 15.5625 C9.05107727 16.21484049 4.55378865 16.02558476 0.0625 16 C-1.17822266 16.01998047 -2.41894531 16.03996094 -3.69726562 16.06054688 C-5.48487305 16.05958008 -5.48487305 16.05958008 -7.30859375 16.05859375 C-8.39970459 16.06044678 -9.49081543 16.0622998 -10.61499023 16.06420898 C-14.17430088 15.44523772 -15.35039349 14.4225778 -17.5 11.5625 C-18 8.0625 -18 8.0625 -17.5 4.5625 C-13.00633051 -1.39640958 -6.84994256 -0.06071378 0 0 Z " fill="#000000" transform="translate(242.5,406.4375)"/>
<path d="M0 0 C1.19173828 -0.00064453 2.38347656 -0.00128906 3.61132812 -0.00195312 C5.47241211 0.02801758 5.47241211 0.02801758 7.37109375 0.05859375 C9.23797852 0.04795898 9.23797852 0.04795898 11.14257812 0.03710938 C20.28537437 0.1014604 20.28537437 0.1014604 22.63647461 1.87475586 C24.25201943 4.10946387 24.61232187 5.74828745 24.80859375 8.49609375 C23.87243125 11.59263126 23.10436053 13.20032697 20.80859375 15.49609375 C16.36905025 15.98427124 11.89689392 15.86650188 7.43359375 15.87109375 C6.18835938 15.89558594 4.943125 15.92007812 3.66015625 15.9453125 C2.46390625 15.94917969 1.26765625 15.95304687 0.03515625 15.95703125 C-1.61105713 15.96935791 -1.61105713 15.96935791 -3.29052734 15.98193359 C-6.86931245 15.38255787 -8.03601922 14.37058404 -10.19140625 11.49609375 C-10.69140625 7.99609375 -10.69140625 7.99609375 -10.19140625 4.49609375 C-7.16065803 0.46364612 -4.93850021 -0.00838703 0 0 Z " fill="#000000" transform="translate(285.19140625,406.50390625)"/>
<path d="M0 0 C1.24072266 -0.02835937 2.48144531 -0.05671875 3.75976562 -0.0859375 C5.54737305 -0.08980469 5.54737305 -0.08980469 7.37109375 -0.09375 C8.46220459 -0.10083984 9.55331543 -0.10792969 10.67749023 -0.11523438 C13.5625 0.5 13.5625 0.5 15.95336914 2.81054688 C17.5625 5.5 17.5625 5.5 17.5 9.125 C16.27492653 13.53526448 16.27492653 13.53526448 13.5625 15.5 C9.11470219 16.17778969 4.61864611 16.00930843 0.125 16 C-1.73608398 16.04253906 -1.73608398 16.04253906 -3.63476562 16.0859375 C-5.42237305 16.08980469 -5.42237305 16.08980469 -7.24609375 16.09375 C-8.33720459 16.10083984 -9.42831543 16.10792969 -10.55249023 16.11523438 C-13.4375 15.5 -13.4375 15.5 -15.82836914 13.18945312 C-17.4375 10.5 -17.4375 10.5 -17.375 6.875 C-14.94084611 -1.88795401 -7.77418054 -0.01610395 0 0 Z " fill="#000000" transform="translate(192.4375,406.5)"/>
</svg>
